<?xml version="1.0" standalone="no"?>
<!DOCTYPE svg PUBLIC "-//W3C//DTD SVG 20010904//EN"
 "http://www.w3.org/TR/2001/REC-SVG-20010904/DTD/svg10.dtd">
<svg version="1.0" xmlns="http://www.w3.org/2000/svg"
 width="566.000000pt" height="566.000000pt" viewBox="0 0 566.000000 566.000000"
 preserveAspectRatio="xMidYMid meet">
<metadata>
Created by potrace 1.11, written by Peter Selinger 2001-2013
</metadata>
<g transform="translate(0.000000,566.000000) scale(0.100000,-0.100000)"
fill="#000000" stroke="none">
<path d="M0 2830 l0 -2830 2830 0 2830 0 0 2830 0 2830 -2830 0 -2830 0 0
-2830z m2907 1604 c18 -14 40 -38 48 -55 11 -21 23 -29 43 -29 15 0 46 -9 69
-19 34 -16 44 -27 54 -60 10 -35 9 -53 -7 -121 l-20 -80 32 0 c35 0 89 -38 99
-70 4 -14 19 -21 53 -25 101 -13 116 -17 144 -45 34 -35 36 -71 8 -164 -17
-54 -19 -73 -10 -104 28 -101 12 -127 -103 -176 -62 -26 -66 -29 -61 -56 8
-36 -19 -86 -56 -105 -37 -19 -89 -18 -223 4 -59 9 -109 15 -112 13 -3 -3 -5
-63 -5 -133 0 -115 -2 -129 -18 -138 -35 -19 -42 5 -42 139 0 70 -2 129 -5
132 -3 2 -53 -4 -112 -13 -134 -22 -186 -23 -223 -4 -37 19 -64 69 -56 105 5
27 1 30 -61 56 -97 41 -113 57 -113 108 0 24 5 57 11 74 9 26 7 43 -10 94 -30
88 -28 133 7 168 28 28 43 32 144 45 34 4 49 11 53 25 10 32 64 70 99 70 l32
0 -20 80 c-16 68 -17 86 -7 121 10 33 20 44 54 60 23 10 54 19 69 19 20 0 32
8 43 29 41 80 136 106 202 55z m-1946 -1832 c26 -23 33 -38 36 -79 5 -46 -9
-160 -23 -198 -5 -11 0 -15 17 -15 39 0 46 10 83 115 45 127 79 175 133 194
37 13 44 13 67 -3 l27 -17 -35 -41 c-34 -39 -112 -206 -101 -216 3 -3 22 3 43
13 20 11 40 21 45 23 4 2 7 -14 7 -35 0 -49 -29 -79 -85 -91 -49 -10 -58 -26
-82 -144 -15 -77 -21 -90 -40 -94 -14 -4 -34 1 -48 10 -30 20 -33 70 -10 156
8 30 15 56 15 58 0 1 -13 2 -28 2 -26 0 -33 -8 -66 -74 -58 -118 -141 -172
-222 -146 -46 15 -64 45 -64 102 0 41 5 54 35 87 19 21 50 45 67 52 32 13 32
13 8 19 -55 13 -61 95 -14 200 59 130 165 185 235 122z m2444 14 c57 -24 64
-106 20 -251 -8 -27 -13 -50 -11 -52 1 -1 24 26 50 62 26 35 71 89 99 120 55
57 85 68 128 44 19 -10 19 -10 -1 -36 -23 -30 -55 -127 -65 -199 l-7 -49 68
100 c93 136 205 249 264 265 52 14 93 -1 98 -36 2 -17 -2 -20 -31 -16 -19 2
-48 -3 -65 -12 -38 -19 -137 -129 -212 -235 -61 -84 -150 -249 -150 -275 0 -9
-11 -21 -25 -28 -19 -9 -29 -8 -50 6 -23 15 -25 22 -25 89 1 39 7 106 14 147
8 41 12 76 11 78 -4 5 -83 -121 -115 -183 -16 -33 -33 -77 -36 -97 -5 -28 -12
-38 -30 -42 -52 -14 -90 36 -78 103 3 20 28 122 55 227 27 105 49 196 49 202
0 22 -26 12 -57 -20 -52 -55 -67 -95 -68 -175 0 -69 -1 -73 -22 -73 -83 0 -58
186 39 287 31 32 82 62 106 63 7 0 28 -6 47 -14z m-1586 -233 c19 -16 20 -22
9 -62 -10 -39 -8 -53 12 -113 13 -37 26 -68 30 -68 10 0 53 41 71 70 l16 24
17 -27 c17 -25 17 -28 -3 -60 -11 -18 -38 -43 -59 -55 -27 -15 -41 -31 -45
-51 -8 -40 -52 -88 -93 -101 -77 -26 -153 20 -132 80 10 31 54 64 101 75 31 8
30 14 -5 95 -30 69 -39 125 -27 157 19 53 68 69 108 36z m260 0 c19 -16 20
-22 9 -62 -10 -39 -8 -53 12 -113 13 -37 26 -68 29 -68 12 1 49 36 66 62 9 15
22 25 28 22 7 -2 26 22 43 54 50 94 128 128 188 81 l26 -20 0 20 c0 16 6 21
28 21 37 0 72 -26 72 -55 0 -12 -16 -64 -35 -114 -33 -86 -44 -141 -27 -141
18 0 57 37 99 94 25 33 50 61 56 61 6 0 22 35 35 78 20 65 28 77 46 77 54 0
79 -46 56 -105 -7 -18 8 -7 53 40 50 52 68 65 92 65 35 0 75 -24 75 -45 0 -8
-18 -62 -40 -120 -37 -97 -48 -145 -35 -145 19 0 62 42 102 97 36 51 48 61 59
52 23 -19 16 -53 -20 -101 -40 -52 -91 -92 -129 -102 -31 -7 -81 14 -91 39
-11 30 -6 112 9 155 8 24 13 45 11 47 -9 10 -111 -126 -139 -184 -16 -35 -35
-63 -42 -63 -33 0 -66 25 -72 53 l-6 28 -32 -31 c-59 -57 -124 -60 -167 -6
l-17 21 -23 -22 c-13 -12 -36 -27 -52 -33 -56 -21 -126 22 -126 78 l0 23 -42
-25 c-28 -17 -45 -35 -54 -61 -16 -48 -48 -82 -91 -96 -77 -25 -152 22 -131
81 10 31 54 64 101 75 33 9 33 10 2 82 -36 81 -47 136 -34 170 19 53 68 69
108 36z m1968 -29 c29 -32 38 -84 26 -151 -5 -29 -7 -53 -4 -53 15 0 71 41 81
59 5 11 16 18 24 15 9 -4 20 18 36 75 22 75 26 81 50 81 42 0 64 -31 56 -81
l-7 -41 58 61 c65 68 100 78 144 42 l24 -20 -43 -123 c-23 -68 -42 -129 -42
-135 0 -49 94 49 150 156 52 99 96 141 148 141 21 0 48 -7 60 -16 20 -14 22
-14 22 0 0 23 56 20 80 -4 26 -26 26 -28 -14 -164 -27 -92 -30 -113 -17 -106
21 11 72 66 101 109 22 32 24 33 37 15 7 -10 13 -26 13 -37 0 -24 -91 -120
-153 -160 -37 -24 -56 -46 -79 -92 -75 -148 -137 -205 -225 -205 -44 0 -58 5
-78 25 -57 56 -12 117 150 209 49 28 91 59 93 68 3 16 1 16 -28 1 -42 -20 -88
-7 -115 33 l-21 31 -37 -32 c-21 -18 -51 -35 -68 -39 -34 -7 -83 14 -93 39
-11 29 -7 100 9 150 8 27 13 51 11 53 -9 8 -109 -127 -138 -185 -35 -71 -53
-78 -94 -38 -21 21 -24 31 -19 57 6 28 5 30 -11 23 -11 -4 -39 -15 -64 -23
-25 -8 -56 -25 -70 -37 -77 -69 -171 -57 -205 27 -19 48 -19 81 0 146 12 40
26 60 70 97 81 69 137 78 182 29z m-2563 5 l26 -20 0 20 c0 16 6 21 28 21 39
0 72 -26 72 -57 0 -14 -16 -67 -35 -119 -35 -94 -43 -134 -25 -134 18 0 80 62
112 111 31 49 32 49 51 31 26 -27 17 -50 -50 -122 -78 -85 -144 -98 -193 -37
l-18 22 -24 -22 c-57 -54 -134 -49 -164 10 -36 68 9 211 86 281 47 42 93 48
134 15z m-523 -983 c29 -52 54 -94 56 -93 1 2 7 44 14 95 11 88 13 92 37 92
23 0 24 -3 19 -37 -3 -21 -11 -84 -18 -140 -11 -97 -14 -103 -35 -103 -18 0
-33 19 -76 95 l-53 95 -8 -62 c-16 -127 -16 -128 -43 -128 -20 0 -24 4 -20 23
3 12 10 65 16 117 15 131 17 140 39 140 14 0 34 -27 72 -94z m1633 81 c21 -16
11 -51 -13 -43 -53 17 -59 17 -75 1 -24 -24 -16 -37 37 -62 51 -25 65 -53 50
-99 -21 -62 -117 -90 -164 -48 -17 16 -18 19 -5 33 13 12 19 13 39 2 38 -20
71 -11 75 21 3 24 -3 30 -42 49 -49 23 -61 43 -51 89 13 58 101 92 149 57z
m961 -85 c59 -105 58 -105 71 26 6 67 8 72 30 72 28 0 28 6 9 -145 -8 -66 -15
-123 -15 -127 0 -5 -11 -8 -23 -8 -19 0 -33 16 -73 90 -27 49 -52 90 -55 90
-4 0 -9 -33 -13 -72 -9 -95 -13 -108 -37 -108 -23 0 -23 12 -9 131 19 150 19
151 42 147 15 -2 37 -31 73 -96z m-2197 2 c49 -34 18 -85 -60 -99 -41 -8 -50
-28 -19 -44 12 -7 28 -7 49 1 34 13 48 7 39 -16 -16 -40 -125 -37 -147 4 -48
89 60 209 138 154z m208 -21 c3 -21 9 -53 13 -72 l7 -34 31 71 c25 56 37 72
52 72 12 0 21 -5 21 -10 0 -6 -20 -51 -45 -100 -37 -74 -49 -90 -68 -90 -21 0
-25 9 -45 93 -12 50 -22 95 -22 100 0 4 11 7 25 7 20 0 25 -6 31 -37z m382 21
c46 -32 14 -87 -57 -99 -45 -7 -54 -27 -21 -45 14 -7 26 -8 39 0 27 14 51 13
51 -3 0 -20 -46 -41 -88 -40 -45 1 -72 31 -72 80 0 91 84 152 148 107z m212
-5 l0 -20 26 20 c35 27 44 26 44 -4 0 -18 -5 -25 -19 -25 -28 0 -41 -22 -54
-89 -10 -55 -14 -61 -36 -61 -23 0 -23 1 -17 63 14 124 17 137 37 137 13 0 19
-7 19 -21z m742 16 c12 -5 12 -20 2 -98 -7 -51 -13 -93 -13 -94 -1 -2 -10 -3
-21 -3 -12 0 -20 7 -20 17 0 14 -2 15 -17 1 -50 -44 -103 -20 -103 47 0 90 93
160 172 130z m207 -32 c6 -21 11 -45 11 -54 0 -36 14 -25 41 31 24 51 32 60
54 60 27 0 27 0 -43 -132 -61 -117 -72 -133 -96 -136 l-28 -4 25 42 24 41 -23
82 c-29 103 -29 107 1 107 19 0 26 -7 34 -37z m843 20 c42 -38 12 -84 -64 -98
-42 -8 -46 -16 -22 -40 11 -10 23 -13 38 -9 61 21 80 -2 24 -29 -31 -15 -44
-17 -71 -8 -34 12 -57 44 -57 80 0 85 98 153 152 104z m203 -6 c3 -12 10 -45
14 -72 7 -47 9 -48 18 -25 50 117 52 120 77 120 l25 0 -44 -96 c-25 -53 -45
-98 -45 -101 0 -2 -12 -3 -27 -1 -25 3 -28 9 -50 93 -28 111 -28 105 2 105 17
0 26 -7 30 -23z m387 6 c42 -38 12 -84 -64 -98 -42 -8 -46 -16 -22 -40 11 -10
23 -13 38 -9 61 21 80 -2 24 -29 -31 -15 -44 -17 -71 -8 -34 12 -57 44 -57 80
0 85 98 153 152 104z m214 2 c5 -12 9 -12 29 1 13 9 28 13 34 10 15 -10 0 -46
-20 -46 -23 0 -44 -41 -53 -102 -7 -43 -10 -48 -33 -48 -24 0 -25 2 -20 38 3
20 9 65 13 100 5 52 10 62 26 62 10 0 21 -7 24 -15z"/>
<path d="M2783 4378 c-11 -13 -27 -36 -34 -53 -12 -26 -21 -31 -65 -36 -70 -9
-94 -23 -94 -59 0 -26 31 -125 76 -241 33 -87 -5 -106 -68 -34 -49 56 -80 59
-108 13 -32 -55 -37 -58 -103 -58 -85 0 -112 -16 -111 -62 1 -20 11 -61 23
-91 18 -43 20 -59 11 -81 -5 -15 -10 -43 -10 -61 0 -40 15 -53 102 -85 73 -27
84 -40 70 -86 -9 -31 -8 -38 9 -55 10 -10 29 -19 40 -19 28 0 260 40 271 46
14 9 10 76 -4 71 -77 -31 -202 -68 -214 -63 -9 4 -14 15 -12 28 2 19 18 28 90
53 47 17 89 33 93 36 3 4 -52 44 -122 89 -186 120 -195 127 -183 151 6 10 16
19 22 19 6 0 82 -45 168 -100 86 -55 160 -100 163 -100 4 0 7 68 7 151 l0 152
-71 123 c-39 67 -69 131 -67 141 2 10 13 19 25 21 18 3 29 -9 60 -67 21 -39
41 -71 45 -71 4 0 9 53 10 118 l3 117 25 0 c25 0 25 0 30 -119 6 -131 5 -131
59 -33 26 46 38 57 55 55 37 -5 28 -40 -44 -163 l-70 -120 0 -152 c0 -84 3
-153 7 -153 3 0 78 45 165 101 157 101 188 112 188 69 0 -16 -37 -45 -155
-122 -86 -55 -153 -104 -149 -107 3 -3 45 -19 92 -36 72 -25 88 -34 90 -53 2
-13 -3 -24 -12 -28 -12 -5 -137 32 -213 63 -15 5 -19 -62 -5 -71 11 -6 243
-46 271 -46 11 0 30 9 40 19 17 17 18 24 9 55 -14 46 -3 59 70 86 87 32 102
45 102 85 0 18 -5 46 -10 60 -8 21 -5 42 16 100 14 40 24 81 22 91 -5 28 -46
44 -115 44 -66 0 -71 3 -103 58 -28 46 -59 43 -108 -13 -63 -72 -101 -53 -68
34 45 116 76 215 76 241 0 36 -24 50 -94 59 -44 5 -53 10 -65 36 -21 47 -52
75 -81 75 -15 0 -36 -10 -47 -22z"/>
<path d="M832 2527 c-54 -56 -95 -202 -62 -222 6 -4 7 -11 4 -17 -4 -6 1 -8
12 -5 11 4 31 9 46 13 22 5 30 15 39 46 21 78 38 188 33 203 -10 24 -38 17
-72 -18z"/>
<path d="M774 2211 c-75 -34 -111 -116 -63 -141 40 -22 91 37 114 133 8 32 3
33 -51 8z"/>
<path d="M1714 2017 c-33 -29 -30 -52 5 -34 13 7 31 22 39 35 13 20 13 22 -1
22 -9 0 -28 -10 -43 -23z"/>
<path d="M2393 2308 c-52 -58 -108 -238 -73 -238 25 0 90 75 110 126 24 67 24
64 0 64 -23 0 -24 3 -8 30 20 31 -3 46 -29 18z"/>
<path d="M1974 2017 c-33 -29 -30 -52 5 -34 13 7 31 22 39 35 13 20 13 22 -1
22 -9 0 -28 -10 -43 -23z"/>
<path d="M3954 2307 c4 -18 -1 -30 -19 -47 -14 -13 -25 -31 -25 -41 0 -17 53
-69 71 -69 17 0 30 53 27 114 -3 59 -4 61 -32 64 -26 3 -28 1 -22 -21z"/>
<path d="M4748 2303 c-15 -16 -37 -50 -48 -76 -24 -54 -39 -157 -23 -157 15 0
102 95 112 122 24 65 24 68 -5 68 -26 0 -26 1 -10 19 12 13 15 25 9 35 -8 14
-13 12 -35 -11z"/>
<path d="M3870 2119 c0 -14 6 -34 14 -44 12 -17 17 -18 42 -6 27 12 28 13 9
23 -11 6 -30 20 -42 31 l-23 20 0 -24z"/>
<path d="M4630 1884 c-89 -53 -134 -113 -95 -128 34 -13 90 31 134 104 35 59
28 63 -39 24z"/>
<path d="M1415 2296 c-50 -65 -95 -226 -63 -226 24 0 96 83 113 129 20 57 19
61 -7 61 -17 0 -19 3 -10 12 14 14 16 58 3 58 -6 0 -22 -15 -36 -34z"/>
<path d="M1282 1338 c-7 -7 -12 -17 -12 -24 0 -19 54 -1 58 19 4 20 -28 23
-46 5z"/>
<path d="M1872 1338 c-7 -7 -12 -17 -12 -24 0 -19 54 -1 58 19 4 20 -28 23
-46 5z"/>
<path d="M2805 1330 c-10 -11 -18 -36 -19 -57 -2 -75 57 -41 71 41 5 31 3 36
-14 36 -11 0 -28 -9 -38 -20z"/>
<path d="M3870 1331 c-14 -27 -13 -30 13 -24 29 8 48 23 41 34 -10 16 -43 9
-54 -10z"/>
<path d="M4462 1338 c-7 -7 -12 -17 -12 -24 0 -19 54 -1 58 19 4 20 -28 23
-46 5z"/>
</g>
</svg>
